<svg xmlns="http://www.w3.org/2000/svg" xmlns:xlink="http://www.w3.org/1999/xlink" width="16" height="16" preserveAspectRatio="xMidYMid meet" viewBox="0 0 16 16" style="-ms-transform: rotate(360deg); -webkit-transform: rotate(360deg); transform: rotate(360deg);"><g fill="#f34607"><path d="M9 4a1 1 0 1 1-2 0a1 1 0 0 1 2 0zm-2.5 6.5a1.5 1.5 0 1 1 3 0a1.5 1.5 0 0 1-3 0z"/><path fill-rule="evenodd" d="M4 0a2 2 0 0 0-2 2v12a2 2 0 0 0 2 2h8a2 2 0 0 0 2-2V2a2 2 0 0 0-2-2H4zm6 4a2 2 0 1 1-4 0a2 2 0 0 1 4 0zM8 7a3.5 3.5 0 1 0 0 7a3.5 3.5 0 0 0 0-7z"/></g><rect x="0" y="0" width="16" height="16" fill="rgba(0, 0, 0, 0)" /></svg>